<svg width="24" height="24" viewBox="0 0 24 24" fill="none" xmlns="http://www.w3.org/2000/svg">
<path fill-rule="evenodd" clip-rule="evenodd" d="M4 12.0957C4 7.67742 7.58172 4.0957 12 4.0957C16.4183 4.0957 20 7.67742 20 12.0957C20 16.514 16.4183 20.0957 12 20.0957H5.06066L6.34314 18.8132C6.4838 18.6726 6.56281 18.4818 6.56281 18.2829C6.56281 18.084 6.4838 17.8932 6.34314 17.7526C4.89461 16.304 4 14.305 4 12.0957ZM12 2.5957C6.75329 2.5957 2.5 6.849 2.5 12.0957C2.5 14.4488 3.35631 16.603 4.77301 18.262L2.71967 20.3154C2.50517 20.5299 2.441 20.8525 2.55709 21.1327C2.67318 21.413 2.94665 21.5957 3.25 21.5957H12C17.2467 21.5957 21.5 17.3424 21.5 12.0957C21.5 6.849 17.2467 2.5957 12 2.5957ZM7.625 10.8467C6.93464 10.8467 6.375 11.4063 6.375 12.0967C6.375 12.787 6.93464 13.3467 7.625 13.3467H7.6251C8.31545 13.3467 8.8751 12.787 8.8751 12.0967C8.8751 11.4063 8.31545 10.8467 7.6251 10.8467H7.625ZM10.75 12.0967C10.75 11.4063 11.3096 10.8467 12 10.8467H12.0001C12.6905 10.8467 13.2501 11.4063 13.2501 12.0967C13.2501 12.787 12.6905 13.3467 12.0001 13.3467H12C11.3096 13.3467 10.75 12.787 10.75 12.0967ZM16.375 10.8467C15.6846 10.8467 15.125 11.4063 15.125 12.0967C15.125 12.787 15.6846 13.3467 16.375 13.3467H16.3751C17.0655 13.3467 17.6251 12.787 17.6251 12.0967C17.6251 11.4063 17.0655 10.8467 16.3751 10.8467H16.375Z" fill="#667085"/>
</svg>
