<svg width="44" height="44" viewBox="0 0 44 44" fill="none" xmlns="http://www.w3.org/2000/svg">
<path d="M8 0.5H36C40.1421 0.5 43.5 3.85786 43.5 8V36C43.5 40.1421 40.1421 43.5 36 43.5H8C3.85786 43.5 0.5 40.1421 0.5 36V8C0.5 3.85786 3.85786 0.5 8 0.5Z" stroke="#E4E7EC"/>
<path fill-rule="evenodd" clip-rule="evenodd" d="M14.5833 17C14.5833 16.5858 14.9191 16.25 15.3333 16.25H28.6667C29.0809 16.25 29.4167 16.5858 29.4167 17C29.4167 17.4142 29.0809 17.75 28.6667 17.75L15.3333 17.75C14.9191 17.75 14.5833 17.4142 14.5833 17ZM14.5833 27C14.5833 26.5858 14.9191 26.25 15.3333 26.25L28.6667 26.25C29.0809 26.25 29.4167 26.5858 29.4167 27C29.4167 27.4142 29.0809 27.75 28.6667 27.75L15.3333 27.75C14.9191 27.75 14.5833 27.4142 14.5833 27ZM15.3333 21.25C14.9191 21.25 14.5833 21.5858 14.5833 22C14.5833 22.4142 14.9191 22.75 15.3333 22.75L22 22.75C22.4142 22.75 22.75 22.4142 22.75 22C22.75 21.5858 22.4142 21.25 22 21.25L15.3333 21.25Z" fill="#667085"/>
</svg>
